<?xml version="1.0" encoding="UTF-8" standalone="no"?>
<!DOCTYPE svg PUBLIC "-//W3C//DTD SVG 1.1//EN"
 "http://www.w3.org/Graphics/SVG/1.1/DTD/svg11.dtd">
<!-- Generated by graphviz version 2.40.1 (20161225.0304)
 -->
<!-- Title: dependencies Pages: 1 -->
<svg width="903pt" height="211pt"
 viewBox="0.00 0.00 903.00 211.00" xmlns="http://www.w3.org/2000/svg" xmlns:xlink="http://www.w3.org/1999/xlink">
<g id="graph0" class="graph" transform="scale(1 1) rotate(0) translate(4 207)">
<title>dependencies</title>
<polygon fill="#ffffff" stroke="transparent" points="-4,4 -4,-207 899,-207 899,4 -4,4"/>
<text text-anchor="start" x="426.5091" y="-42.4" font-family="sans-serif" font-weight="bold" font-size="14.00" fill="#000000">Legend</text>
<polygon fill="#ffffb3" stroke="transparent" points="213.5,-10 213.5,-30 233.5,-30 233.5,-10 213.5,-10"/>
<text text-anchor="start" x="237.129" y="-15.4" font-family="sans-serif" font-size="14.00" fill="#000000"> &#160;Declarations</text>
<polygon fill="#8dd3c7" stroke="transparent" points="326.5,-10 326.5,-30 346.5,-30 346.5,-10 326.5,-10"/>
<text text-anchor="start" x="350.2251" y="-15.4" font-family="sans-serif" font-size="14.00" fill="#000000"> &#160;Module</text>
<polygon fill="#80b1d3" stroke="transparent" points="412.5,-10 412.5,-30 432.5,-30 432.5,-10 412.5,-10"/>
<text text-anchor="start" x="436.2812" y="-15.4" font-family="sans-serif" font-size="14.00" fill="#000000"> &#160;Bootstrap</text>
<polygon fill="#fdb462" stroke="transparent" points="509.5,-10 509.5,-30 529.5,-30 529.5,-10 509.5,-10"/>
<text text-anchor="start" x="533.1732" y="-15.4" font-family="sans-serif" font-size="14.00" fill="#000000"> &#160;Providers</text>
<polygon fill="#fb8072" stroke="transparent" points="605.5,-10 605.5,-30 625.5,-30 625.5,-10 605.5,-10"/>
<text text-anchor="start" x="629.2258" y="-15.4" font-family="sans-serif" font-size="14.00" fill="#000000"> &#160;Exports</text>
<g id="clust1" class="cluster">
<title>cluster_BlocksModule</title>
<polygon fill="none" stroke="#000000" stroke-dasharray="1,5" points="8,-70 8,-195 887,-195 887,-70 8,-70"/>
</g>
<g id="clust2" class="cluster">
<title>cluster_BlocksModule_declarations</title>
<polygon fill="none" stroke="#000000" points="184,-78 184,-130 879,-130 879,-78 184,-78"/>
</g>
<g id="clust8" class="cluster">
<title>cluster_BlocksModule_imports</title>
<polygon fill="none" stroke="#000000" points="16,-78 16,-130 176,-130 176,-78 16,-78"/>
</g>
<!-- BlockTxesComponent -->
<g id="node1" class="node">
<title>BlockTxesComponent</title>
<polygon fill="#ffffb3" stroke="#000000" points="870.986,-122 729.014,-122 729.014,-86 870.986,-86 870.986,-122"/>
<text text-anchor="middle" x="800" y="-99.8" font-family="Times,serif" font-size="14.00" fill="#000000">BlockTxesComponent</text>
</g>
<!-- BlocksModule -->
<g id="node6" class="node">
<title>BlocksModule</title>
<polygon fill="#8dd3c7" stroke="#000000" points="519.4372,-187 516.4372,-191 495.4372,-191 492.4372,-187 420.5628,-187 420.5628,-151 519.4372,-151 519.4372,-187"/>
<text text-anchor="middle" x="470" y="-164.8" font-family="Times,serif" font-size="14.00" fill="#000000">BlocksModule</text>
</g>
<!-- BlockTxesComponent&#45;&gt;BlocksModule -->
<g id="edge1" class="edge">
<title>BlockTxesComponent&#45;&gt;BlocksModule</title>
<path fill="none" stroke="#000000" d="M800,-122.2843C800,-143.3211 800,-175 800,-175 800,-175 529.4043,-175 529.4043,-175"/>
<polygon fill="#000000" stroke="#000000" points="529.4044,-171.5001 519.4043,-175 529.4043,-178.5001 529.4044,-171.5001"/>
</g>
<!-- BlocksComponent -->
<g id="node2" class="node">
<title>BlocksComponent</title>
<polygon fill="#ffffb3" stroke="#000000" points="711.219,-122 590.781,-122 590.781,-86 711.219,-86 711.219,-122"/>
<text text-anchor="middle" x="651" y="-99.8" font-family="Times,serif" font-size="14.00" fill="#000000">BlocksComponent</text>
</g>
<!-- BlocksComponent&#45;&gt;BlocksModule -->
<g id="edge2" class="edge">
<title>BlocksComponent&#45;&gt;BlocksModule</title>
<path fill="none" stroke="#000000" d="M651,-122.0225C651,-139.3734 651,-163 651,-163 651,-163 529.459,-163 529.459,-163"/>
<polygon fill="#000000" stroke="#000000" points="529.4591,-159.5001 519.459,-163 529.459,-166.5001 529.4591,-159.5001"/>
</g>
<!-- MessagePipe -->
<g id="node3" class="node">
<title>MessagePipe</title>
<polygon fill="#ffffb3" stroke="#000000" points="572.8655,-122 483.1345,-122 483.1345,-86 572.8655,-86 572.8655,-122"/>
<text text-anchor="middle" x="528" y="-99.8" font-family="Times,serif" font-size="14.00" fill="#000000">MessagePipe</text>
</g>
<!-- MessagePipe&#45;&gt;BlocksModule -->
<g id="edge3" class="edge">
<title>MessagePipe&#45;&gt;BlocksModule</title>
<path fill="none" stroke="#000000" d="M501.1427,-122.1061C501.1427,-122.1061 501.1427,-140.991 501.1427,-140.991"/>
<polygon fill="#000000" stroke="#000000" points="497.6428,-140.9909 501.1427,-150.991 504.6428,-140.991 497.6428,-140.9909"/>
</g>
<!-- MsNemesisPipe -->
<g id="node4" class="node">
<title>MsNemesisPipe</title>
<polygon fill="#ffffb3" stroke="#000000" points="465.4832,-122 358.5168,-122 358.5168,-86 465.4832,-86 465.4832,-122"/>
<text text-anchor="middle" x="412" y="-99.8" font-family="Times,serif" font-size="14.00" fill="#000000">MsNemesisPipe</text>
</g>
<!-- MsNemesisPipe&#45;&gt;BlocksModule -->
<g id="edge4" class="edge">
<title>MsNemesisPipe&#45;&gt;BlocksModule</title>
<path fill="none" stroke="#000000" d="M443.1368,-122.1061C443.1368,-122.1061 443.1368,-140.991 443.1368,-140.991"/>
<polygon fill="#000000" stroke="#000000" points="439.6368,-140.9909 443.1368,-150.991 446.6368,-140.991 439.6368,-140.9909"/>
</g>
<!-- TxesDetailsComponent -->
<g id="node5" class="node">
<title>TxesDetailsComponent</title>
<polygon fill="#ffffb3" stroke="#000000" points="340.1965,-122 191.8035,-122 191.8035,-86 340.1965,-86 340.1965,-122"/>
<text text-anchor="middle" x="266" y="-99.8" font-family="Times,serif" font-size="14.00" fill="#000000">TxesDetailsComponent</text>
</g>
<!-- TxesDetailsComponent&#45;&gt;BlocksModule -->
<g id="edge5" class="edge">
<title>TxesDetailsComponent&#45;&gt;BlocksModule</title>
<path fill="none" stroke="#000000" d="M266,-122.0225C266,-139.3734 266,-163 266,-163 266,-163 410.6173,-163 410.6173,-163"/>
<polygon fill="#000000" stroke="#000000" points="410.6173,-166.5001 420.6173,-163 410.6173,-159.5001 410.6173,-166.5001"/>
</g>
<!-- BlocksRoutingModule -->
<g id="node7" class="node">
<title>BlocksRoutingModule</title>
<polygon fill="#8dd3c7" stroke="#000000" points="167.5547,-122 164.5547,-126 143.5547,-126 140.5547,-122 24.4453,-122 24.4453,-86 167.5547,-86 167.5547,-122"/>
<text text-anchor="middle" x="96" y="-99.8" font-family="Times,serif" font-size="14.00" fill="#000000">BlocksRoutingModule</text>
</g>
<!-- BlocksRoutingModule&#45;&gt;BlocksModule -->
<g id="edge6" class="edge">
<title>BlocksRoutingModule&#45;&gt;BlocksModule</title>
<path fill="none" stroke="#000000" d="M96,-122.2843C96,-143.3211 96,-175 96,-175 96,-175 410.7214,-175 410.7214,-175"/>
<polygon fill="#000000" stroke="#000000" points="410.7215,-178.5001 420.7214,-175 410.7214,-171.5001 410.7215,-178.5001"/>
</g>
</g>
</svg>
