<?xml version="1.0" encoding="UTF-8" standalone="no"?>
<!DOCTYPE svg PUBLIC "-//W3C//DTD SVG 1.1//EN"
 "http://www.w3.org/Graphics/SVG/1.1/DTD/svg11.dtd">
<!-- Generated by graphviz version 2.40.1 (20161225.0304)
 -->
<!-- Title: dependencies Pages: 1 -->
<svg width="704pt" height="284pt"
 viewBox="0.00 0.00 704.00 284.00" xmlns="http://www.w3.org/2000/svg" xmlns:xlink="http://www.w3.org/1999/xlink">
<g id="graph0" class="graph" transform="scale(1 1) rotate(0) translate(4 280)">
<title>dependencies</title>
<polygon fill="#ffffff" stroke="transparent" points="-4,4 -4,-280 700,-280 700,4 -4,4"/>
<text text-anchor="start" x="327.0091" y="-42.4" font-family="sans-serif" font-weight="bold" font-size="14.00" fill="#000000">Legend</text>
<polygon fill="#ffffb3" stroke="transparent" points="114,-10 114,-30 134,-30 134,-10 114,-10"/>
<text text-anchor="start" x="137.629" y="-15.4" font-family="sans-serif" font-size="14.00" fill="#000000"> &#160;Declarations</text>
<polygon fill="#8dd3c7" stroke="transparent" points="227,-10 227,-30 247,-30 247,-10 227,-10"/>
<text text-anchor="start" x="250.7251" y="-15.4" font-family="sans-serif" font-size="14.00" fill="#000000"> &#160;Module</text>
<polygon fill="#80b1d3" stroke="transparent" points="313,-10 313,-30 333,-30 333,-10 313,-10"/>
<text text-anchor="start" x="336.7812" y="-15.4" font-family="sans-serif" font-size="14.00" fill="#000000"> &#160;Bootstrap</text>
<polygon fill="#fdb462" stroke="transparent" points="410,-10 410,-30 430,-30 430,-10 410,-10"/>
<text text-anchor="start" x="433.6732" y="-15.4" font-family="sans-serif" font-size="14.00" fill="#000000"> &#160;Providers</text>
<polygon fill="#fb8072" stroke="transparent" points="506,-10 506,-30 526,-30 526,-10 506,-10"/>
<text text-anchor="start" x="529.7258" y="-15.4" font-family="sans-serif" font-size="14.00" fill="#000000"> &#160;Exports</text>
<g id="clust1" class="cluster">
<title>cluster_AppModule</title>
<polygon fill="none" stroke="#000000" stroke-dasharray="1,5" points="8,-70 8,-268 688,-268 688,-70 8,-70"/>
</g>
<g id="clust2" class="cluster">
<title>cluster_AppModule_declarations</title>
<polygon fill="none" stroke="#000000" points="530,-78 530,-130 680,-130 680,-78 530,-78"/>
</g>
<g id="clust4" class="cluster">
<title>cluster_AppModule_imports</title>
<polygon fill="none" stroke="#000000" points="16,-78 16,-130 522,-130 522,-78 16,-78"/>
</g>
<g id="clust6" class="cluster">
<title>cluster_AppModule_bootstrap</title>
<polygon fill="none" stroke="#000000" points="257,-208 257,-260 381,-260 381,-208 257,-208"/>
</g>
<!-- NotfoundComponent -->
<g id="node1" class="node">
<title>NotfoundComponent</title>
<polygon fill="#ffffb3" stroke="#000000" points="672.4902,-122 537.5098,-122 537.5098,-86 672.4902,-86 672.4902,-122"/>
<text text-anchor="middle" x="605" y="-99.8" font-family="Times,serif" font-size="14.00" fill="#000000">NotfoundComponent</text>
</g>
<!-- AppModule -->
<g id="node2" class="node">
<title>AppModule</title>
<polygon fill="#8dd3c7" stroke="#000000" points="360.6571,-187 357.6571,-191 336.6571,-191 333.6571,-187 277.3429,-187 277.3429,-151 360.6571,-151 360.6571,-187"/>
<text text-anchor="middle" x="319" y="-164.8" font-family="Times,serif" font-size="14.00" fill="#000000">AppModule</text>
</g>
<!-- NotfoundComponent&#45;&gt;AppModule -->
<g id="edge1" class="edge">
<title>NotfoundComponent&#45;&gt;AppModule</title>
<path fill="none" stroke="#000000" d="M605,-122.2843C605,-143.3211 605,-175 605,-175 605,-175 370.8931,-175 370.8931,-175"/>
<polygon fill="#000000" stroke="#000000" points="370.8932,-171.5001 360.8931,-175 370.8931,-178.5001 370.8932,-171.5001"/>
</g>
<!-- AppComponent  -->
<g id="node7" class="node">
<title>AppComponent </title>
<polygon fill="#80b1d3" stroke="#000000" points="373.439,-252 264.561,-252 264.561,-216 373.439,-216 373.439,-252"/>
<text text-anchor="middle" x="319" y="-229.8" font-family="Times,serif" font-size="14.00" fill="#000000">AppComponent </text>
</g>
<!-- AppModule&#45;&gt;AppComponent  -->
<g id="edge6" class="edge">
<title>AppModule&#45;&gt;AppComponent </title>
<path fill="none" stroke="#000000" stroke-dasharray="1,5" d="M319,-187.1061C319,-187.1061 319,-205.991 319,-205.991"/>
<polygon fill="#000000" stroke="#000000" points="315.5001,-205.9909 319,-215.991 322.5001,-205.991 315.5001,-205.9909"/>
</g>
<!-- AccountsModule -->
<g id="node3" class="node">
<title>AccountsModule</title>
<polygon fill="#8dd3c7" stroke="#000000" points="514.4216,-122 511.4216,-126 490.4216,-126 487.4216,-122 401.5784,-122 401.5784,-86 514.4216,-86 514.4216,-122"/>
<text text-anchor="middle" x="458" y="-99.8" font-family="Times,serif" font-size="14.00" fill="#000000">AccountsModule</text>
</g>
<!-- AccountsModule&#45;&gt;AppModule -->
<g id="edge2" class="edge">
<title>AccountsModule&#45;&gt;AppModule</title>
<path fill="none" stroke="#000000" d="M458,-122.0225C458,-139.3734 458,-163 458,-163 458,-163 370.7046,-163 370.7046,-163"/>
<polygon fill="#000000" stroke="#000000" points="370.7046,-159.5001 360.7046,-163 370.7045,-166.5001 370.7046,-159.5001"/>
</g>
<!-- AppRoutingModule -->
<g id="node4" class="node">
<title>AppRoutingModule</title>
<polygon fill="#8dd3c7" stroke="#000000" points="383.2744,-122 380.2744,-126 359.2744,-126 356.2744,-122 254.7256,-122 254.7256,-86 383.2744,-86 383.2744,-122"/>
<text text-anchor="middle" x="319" y="-99.8" font-family="Times,serif" font-size="14.00" fill="#000000">AppRoutingModule</text>
</g>
<!-- AppRoutingModule&#45;&gt;AppModule -->
<g id="edge3" class="edge">
<title>AppRoutingModule&#45;&gt;AppModule</title>
<path fill="none" stroke="#000000" d="M319,-122.1061C319,-122.1061 319,-140.991 319,-140.991"/>
<polygon fill="#000000" stroke="#000000" points="315.5001,-140.9909 319,-150.991 322.5001,-140.991 315.5001,-140.9909"/>
</g>
<!-- BlocksModule -->
<g id="node5" class="node">
<title>BlocksModule</title>
<polygon fill="#8dd3c7" stroke="#000000" points="236.4372,-122 233.4372,-126 212.4372,-126 209.4372,-122 137.5628,-122 137.5628,-86 236.4372,-86 236.4372,-122"/>
<text text-anchor="middle" x="187" y="-99.8" font-family="Times,serif" font-size="14.00" fill="#000000">BlocksModule</text>
</g>
<!-- BlocksModule&#45;&gt;AppModule -->
<g id="edge4" class="edge">
<title>BlocksModule&#45;&gt;AppModule</title>
<path fill="none" stroke="#000000" d="M187,-122.0225C187,-139.3734 187,-163 187,-163 187,-163 267.2344,-163 267.2344,-163"/>
<polygon fill="#000000" stroke="#000000" points="267.2344,-166.5001 277.2344,-163 267.2343,-159.5001 267.2344,-166.5001"/>
</g>
<!-- NodesModule -->
<g id="node6" class="node">
<title>NodesModule</title>
<polygon fill="#8dd3c7" stroke="#000000" points="119.8161,-122 116.8161,-126 95.8161,-126 92.8161,-122 24.1839,-122 24.1839,-86 119.8161,-86 119.8161,-122"/>
<text text-anchor="middle" x="72" y="-99.8" font-family="Times,serif" font-size="14.00" fill="#000000">NodesModule</text>
</g>
<!-- NodesModule&#45;&gt;AppModule -->
<g id="edge5" class="edge">
<title>NodesModule&#45;&gt;AppModule</title>
<path fill="none" stroke="#000000" d="M72,-122.2843C72,-143.3211 72,-175 72,-175 72,-175 267.0998,-175 267.0998,-175"/>
<polygon fill="#000000" stroke="#000000" points="267.0999,-178.5001 277.0998,-175 267.0998,-171.5001 267.0999,-178.5001"/>
</g>
</g>
</svg>
