<?xml version="1.0" encoding="UTF-8" standalone="no"?>
<!DOCTYPE svg PUBLIC "-//W3C//DTD SVG 1.1//EN"
 "http://www.w3.org/Graphics/SVG/1.1/DTD/svg11.dtd">
<!-- Generated by graphviz version 2.40.1 (20161225.0304)
 -->
<!-- Title: dependencies Pages: 1 -->
<svg width="828pt" height="284pt"
 viewBox="0.00 0.00 828.00 284.00" xmlns="http://www.w3.org/2000/svg" xmlns:xlink="http://www.w3.org/1999/xlink">
<g id="graph0" class="graph" transform="scale(1 1) rotate(0) translate(4 280)">
<title>dependencies</title>
<polygon fill="#ffffff" stroke="transparent" points="-4,4 -4,-280 824,-280 824,4 -4,4"/>
<text text-anchor="start" x="389.0091" y="-42.4" font-family="sans-serif" font-weight="bold" font-size="14.00" fill="#000000">Legend</text>
<polygon fill="#ffffb3" stroke="transparent" points="176,-10 176,-30 196,-30 196,-10 176,-10"/>
<text text-anchor="start" x="199.629" y="-15.4" font-family="sans-serif" font-size="14.00" fill="#000000"> &#160;Declarations</text>
<polygon fill="#8dd3c7" stroke="transparent" points="289,-10 289,-30 309,-30 309,-10 289,-10"/>
<text text-anchor="start" x="312.7251" y="-15.4" font-family="sans-serif" font-size="14.00" fill="#000000"> &#160;Module</text>
<polygon fill="#80b1d3" stroke="transparent" points="375,-10 375,-30 395,-30 395,-10 375,-10"/>
<text text-anchor="start" x="398.7812" y="-15.4" font-family="sans-serif" font-size="14.00" fill="#000000"> &#160;Bootstrap</text>
<polygon fill="#fdb462" stroke="transparent" points="472,-10 472,-30 492,-30 492,-10 472,-10"/>
<text text-anchor="start" x="495.6732" y="-15.4" font-family="sans-serif" font-size="14.00" fill="#000000"> &#160;Providers</text>
<polygon fill="#fb8072" stroke="transparent" points="568,-10 568,-30 588,-30 588,-10 568,-10"/>
<text text-anchor="start" x="591.7258" y="-15.4" font-family="sans-serif" font-size="14.00" fill="#000000"> &#160;Exports</text>
<g id="clust1" class="cluster">
<title>cluster_AppModule</title>
<polygon fill="none" stroke="#000000" stroke-dasharray="1,5" points="8,-70 8,-268 812,-268 812,-70 8,-70"/>
</g>
<g id="clust2" class="cluster">
<title>cluster_AppModule_declarations</title>
<polygon fill="none" stroke="#000000" points="530,-78 530,-130 804,-130 804,-78 530,-78"/>
</g>
<g id="clust5" class="cluster">
<title>cluster_AppModule_imports</title>
<polygon fill="none" stroke="#000000" points="16,-78 16,-130 522,-130 522,-78 16,-78"/>
</g>
<g id="clust7" class="cluster">
<title>cluster_AppModule_bootstrap</title>
<polygon fill="none" stroke="#000000" points="326,-208 326,-260 450,-260 450,-208 326,-208"/>
</g>
<!-- AppComponent -->
<g id="node1" class="node">
<title>AppComponent</title>
<polygon fill="#ffffb3" stroke="#000000" points="795.9399,-122 690.0601,-122 690.0601,-86 795.9399,-86 795.9399,-122"/>
<text text-anchor="middle" x="743" y="-99.8" font-family="Times,serif" font-size="14.00" fill="#000000">AppComponent</text>
</g>
<!-- AppModule -->
<g id="node3" class="node">
<title>AppModule</title>
<polygon fill="#8dd3c7" stroke="#000000" points="429.6571,-187 426.6571,-191 405.6571,-191 402.6571,-187 346.3429,-187 346.3429,-151 429.6571,-151 429.6571,-187"/>
<text text-anchor="middle" x="388" y="-164.8" font-family="Times,serif" font-size="14.00" fill="#000000">AppModule</text>
</g>
<!-- AppComponent&#45;&gt;AppModule -->
<g id="edge1" class="edge">
<title>AppComponent&#45;&gt;AppModule</title>
<path fill="none" stroke="#000000" d="M743,-122.2843C743,-143.3211 743,-175 743,-175 743,-175 439.7669,-175 439.7669,-175"/>
<polygon fill="#000000" stroke="#000000" points="439.767,-171.5001 429.7669,-175 439.7669,-178.5001 439.767,-171.5001"/>
</g>
<!-- NotfoundComponent -->
<g id="node2" class="node">
<title>NotfoundComponent</title>
<polygon fill="#ffffb3" stroke="#000000" points="672.4902,-122 537.5098,-122 537.5098,-86 672.4902,-86 672.4902,-122"/>
<text text-anchor="middle" x="605" y="-99.8" font-family="Times,serif" font-size="14.00" fill="#000000">NotfoundComponent</text>
</g>
<!-- NotfoundComponent&#45;&gt;AppModule -->
<g id="edge2" class="edge">
<title>NotfoundComponent&#45;&gt;AppModule</title>
<path fill="none" stroke="#000000" d="M605,-122.0225C605,-139.3734 605,-163 605,-163 605,-163 439.8398,-163 439.8398,-163"/>
<polygon fill="#000000" stroke="#000000" points="439.8398,-159.5001 429.8398,-163 439.8397,-166.5001 439.8398,-159.5001"/>
</g>
<!-- AppComponent  -->
<g id="node8" class="node">
<title>AppComponent </title>
<polygon fill="#80b1d3" stroke="#000000" points="442.439,-252 333.561,-252 333.561,-216 442.439,-216 442.439,-252"/>
<text text-anchor="middle" x="388" y="-229.8" font-family="Times,serif" font-size="14.00" fill="#000000">AppComponent </text>
</g>
<!-- AppModule&#45;&gt;AppComponent  -->
<g id="edge7" class="edge">
<title>AppModule&#45;&gt;AppComponent </title>
<path fill="none" stroke="#000000" stroke-dasharray="1,5" d="M388,-187.1061C388,-187.1061 388,-205.991 388,-205.991"/>
<polygon fill="#000000" stroke="#000000" points="384.5001,-205.9909 388,-215.991 391.5001,-205.991 384.5001,-205.9909"/>
</g>
<!-- AccountsModule -->
<g id="node4" class="node">
<title>AccountsModule</title>
<polygon fill="#8dd3c7" stroke="#000000" points="514.4216,-122 511.4216,-126 490.4216,-126 487.4216,-122 401.5784,-122 401.5784,-86 514.4216,-86 514.4216,-122"/>
<text text-anchor="middle" x="458" y="-99.8" font-family="Times,serif" font-size="14.00" fill="#000000">AccountsModule</text>
</g>
<!-- AccountsModule&#45;&gt;AppModule -->
<g id="edge3" class="edge">
<title>AccountsModule&#45;&gt;AppModule</title>
<path fill="none" stroke="#000000" d="M415.8089,-122.1061C415.8089,-122.1061 415.8089,-140.991 415.8089,-140.991"/>
<polygon fill="#000000" stroke="#000000" points="412.309,-140.9909 415.8089,-150.991 419.309,-140.991 412.309,-140.9909"/>
</g>
<!-- AppRoutingModule -->
<g id="node5" class="node">
<title>AppRoutingModule</title>
<polygon fill="#8dd3c7" stroke="#000000" points="383.2744,-122 380.2744,-126 359.2744,-126 356.2744,-122 254.7256,-122 254.7256,-86 383.2744,-86 383.2744,-122"/>
<text text-anchor="middle" x="319" y="-99.8" font-family="Times,serif" font-size="14.00" fill="#000000">AppRoutingModule</text>
</g>
<!-- AppRoutingModule&#45;&gt;AppModule -->
<g id="edge4" class="edge">
<title>AppRoutingModule&#45;&gt;AppModule</title>
<path fill="none" stroke="#000000" d="M364.7795,-122.1061C364.7795,-122.1061 364.7795,-140.991 364.7795,-140.991"/>
<polygon fill="#000000" stroke="#000000" points="361.2795,-140.9909 364.7795,-150.991 368.2795,-140.991 361.2795,-140.9909"/>
</g>
<!-- BlocksModule -->
<g id="node6" class="node">
<title>BlocksModule</title>
<polygon fill="#8dd3c7" stroke="#000000" points="236.4372,-122 233.4372,-126 212.4372,-126 209.4372,-122 137.5628,-122 137.5628,-86 236.4372,-86 236.4372,-122"/>
<text text-anchor="middle" x="187" y="-99.8" font-family="Times,serif" font-size="14.00" fill="#000000">BlocksModule</text>
</g>
<!-- BlocksModule&#45;&gt;AppModule -->
<g id="edge5" class="edge">
<title>BlocksModule&#45;&gt;AppModule</title>
<path fill="none" stroke="#000000" d="M187,-122.0225C187,-139.3734 187,-163 187,-163 187,-163 335.8638,-163 335.8638,-163"/>
<polygon fill="#000000" stroke="#000000" points="335.8638,-166.5001 345.8638,-163 335.8638,-159.5001 335.8638,-166.5001"/>
</g>
<!-- NodesModule -->
<g id="node7" class="node">
<title>NodesModule</title>
<polygon fill="#8dd3c7" stroke="#000000" points="119.8161,-122 116.8161,-126 95.8161,-126 92.8161,-122 24.1839,-122 24.1839,-86 119.8161,-86 119.8161,-122"/>
<text text-anchor="middle" x="72" y="-99.8" font-family="Times,serif" font-size="14.00" fill="#000000">NodesModule</text>
</g>
<!-- NodesModule&#45;&gt;AppModule -->
<g id="edge6" class="edge">
<title>NodesModule&#45;&gt;AppModule</title>
<path fill="none" stroke="#000000" d="M72,-122.2843C72,-143.3211 72,-175 72,-175 72,-175 336.0376,-175 336.0376,-175"/>
<polygon fill="#000000" stroke="#000000" points="336.0377,-178.5001 346.0376,-175 336.0376,-171.5001 336.0377,-178.5001"/>
</g>
</g>
</svg>
