<?xml version="1.0" encoding="UTF-8" standalone="no"?>
<!DOCTYPE svg PUBLIC "-//W3C//DTD SVG 1.1//EN"
 "http://www.w3.org/Graphics/SVG/1.1/DTD/svg11.dtd">
<!-- Generated by graphviz version 2.40.1 (20161225.0304)
 -->
<!-- Title: dependencies Pages: 1 -->
<svg width="504pt" height="211pt"
 viewBox="0.00 0.00 504.00 211.00" xmlns="http://www.w3.org/2000/svg" xmlns:xlink="http://www.w3.org/1999/xlink">
<g id="graph0" class="graph" transform="scale(1 1) rotate(0) translate(4 207)">
<title>dependencies</title>
<polygon fill="#ffffff" stroke="transparent" points="-4,4 -4,-207 500,-207 500,4 -4,4"/>
<text text-anchor="start" x="227.0091" y="-42.4" font-family="sans-serif" font-weight="bold" font-size="14.00" fill="#000000">Legend</text>
<polygon fill="#ffffb3" stroke="transparent" points="14,-10 14,-30 34,-30 34,-10 14,-10"/>
<text text-anchor="start" x="37.629" y="-15.4" font-family="sans-serif" font-size="14.00" fill="#000000"> &#160;Declarations</text>
<polygon fill="#8dd3c7" stroke="transparent" points="127,-10 127,-30 147,-30 147,-10 127,-10"/>
<text text-anchor="start" x="150.7251" y="-15.4" font-family="sans-serif" font-size="14.00" fill="#000000"> &#160;Module</text>
<polygon fill="#80b1d3" stroke="transparent" points="213,-10 213,-30 233,-30 233,-10 213,-10"/>
<text text-anchor="start" x="236.7812" y="-15.4" font-family="sans-serif" font-size="14.00" fill="#000000"> &#160;Bootstrap</text>
<polygon fill="#fdb462" stroke="transparent" points="310,-10 310,-30 330,-30 330,-10 310,-10"/>
<text text-anchor="start" x="333.6732" y="-15.4" font-family="sans-serif" font-size="14.00" fill="#000000"> &#160;Providers</text>
<polygon fill="#fb8072" stroke="transparent" points="406,-10 406,-30 426,-30 426,-10 406,-10"/>
<text text-anchor="start" x="429.7258" y="-15.4" font-family="sans-serif" font-size="14.00" fill="#000000"> &#160;Exports</text>
<g id="clust1" class="cluster">
<title>cluster_NodesModule</title>
<polygon fill="none" stroke="#000000" stroke-dasharray="1,5" points="91,-70 91,-195 405,-195 405,-70 91,-70"/>
</g>
<g id="clust2" class="cluster">
<title>cluster_NodesModule_declarations</title>
<polygon fill="none" stroke="#000000" points="263,-78 263,-130 397,-130 397,-78 263,-78"/>
</g>
<g id="clust4" class="cluster">
<title>cluster_NodesModule_imports</title>
<polygon fill="none" stroke="#000000" points="99,-78 99,-130 255,-130 255,-78 99,-78"/>
</g>
<!-- NodesComponent -->
<g id="node1" class="node">
<title>NodesComponent</title>
<polygon fill="#ffffb3" stroke="#000000" points="388.5982,-122 271.4018,-122 271.4018,-86 388.5982,-86 388.5982,-122"/>
<text text-anchor="middle" x="330" y="-99.8" font-family="Times,serif" font-size="14.00" fill="#000000">NodesComponent</text>
</g>
<!-- NodesModule -->
<g id="node2" class="node">
<title>NodesModule</title>
<polygon fill="#8dd3c7" stroke="#000000" points="300.8161,-187 297.8161,-191 276.8161,-191 273.8161,-187 205.1839,-187 205.1839,-151 300.8161,-151 300.8161,-187"/>
<text text-anchor="middle" x="253" y="-164.8" font-family="Times,serif" font-size="14.00" fill="#000000">NodesModule</text>
</g>
<!-- NodesComponent&#45;&gt;NodesModule -->
<g id="edge1" class="edge">
<title>NodesComponent&#45;&gt;NodesModule</title>
<path fill="none" stroke="#000000" d="M286.0544,-122.1061C286.0544,-122.1061 286.0544,-140.991 286.0544,-140.991"/>
<polygon fill="#000000" stroke="#000000" points="282.5544,-140.9909 286.0544,-150.991 289.5544,-140.991 282.5544,-140.9909"/>
</g>
<!-- NodesRoutingModule -->
<g id="node3" class="node">
<title>NodesRoutingModule</title>
<polygon fill="#8dd3c7" stroke="#000000" points="247.4341,-122 244.4341,-126 223.4341,-126 220.4341,-122 106.5659,-122 106.5659,-86 247.4341,-86 247.4341,-122"/>
<text text-anchor="middle" x="177" y="-99.8" font-family="Times,serif" font-size="14.00" fill="#000000">NodesRoutingModule</text>
</g>
<!-- NodesRoutingModule&#45;&gt;NodesModule -->
<g id="edge2" class="edge">
<title>NodesRoutingModule&#45;&gt;NodesModule</title>
<path fill="none" stroke="#000000" d="M226.2795,-122.1061C226.2795,-122.1061 226.2795,-140.991 226.2795,-140.991"/>
<polygon fill="#000000" stroke="#000000" points="222.7795,-140.9909 226.2795,-150.991 229.7795,-140.991 222.7795,-140.9909"/>
</g>
</g>
</svg>
