<?xml version="1.0" encoding="UTF-8" standalone="no"?>
<!DOCTYPE svg PUBLIC "-//W3C//DTD SVG 1.1//EN"
 "http://www.w3.org/Graphics/SVG/1.1/DTD/svg11.dtd">
<!-- Generated by graphviz version 2.40.1 (20161225.0304)
 -->
<!-- Title: dependencies Pages: 1 -->
<svg width="1581pt" height="360pt"
 viewBox="0.00 0.00 1581.00 360.00" xmlns="http://www.w3.org/2000/svg" xmlns:xlink="http://www.w3.org/1999/xlink">
<g id="graph0" class="graph" transform="scale(1 1) rotate(0) translate(4 356)">
<title>dependencies</title>
<polygon fill="#ffffff" stroke="transparent" points="-4,4 -4,-356 1577,-356 1577,4 -4,4"/>
<text text-anchor="start" x="765.5091" y="-42.4" font-family="sans-serif" font-weight="bold" font-size="14.00" fill="#000000">Legend</text>
<polygon fill="#ffffb3" stroke="transparent" points="552.5,-10 552.5,-30 572.5,-30 572.5,-10 552.5,-10"/>
<text text-anchor="start" x="576.129" y="-15.4" font-family="sans-serif" font-size="14.00" fill="#000000"> &#160;Declarations</text>
<polygon fill="#8dd3c7" stroke="transparent" points="665.5,-10 665.5,-30 685.5,-30 685.5,-10 665.5,-10"/>
<text text-anchor="start" x="689.2251" y="-15.4" font-family="sans-serif" font-size="14.00" fill="#000000"> &#160;Module</text>
<polygon fill="#80b1d3" stroke="transparent" points="751.5,-10 751.5,-30 771.5,-30 771.5,-10 751.5,-10"/>
<text text-anchor="start" x="775.2812" y="-15.4" font-family="sans-serif" font-size="14.00" fill="#000000"> &#160;Bootstrap</text>
<polygon fill="#fdb462" stroke="transparent" points="848.5,-10 848.5,-30 868.5,-30 868.5,-10 848.5,-10"/>
<text text-anchor="start" x="872.1732" y="-15.4" font-family="sans-serif" font-size="14.00" fill="#000000"> &#160;Providers</text>
<polygon fill="#fb8072" stroke="transparent" points="944.5,-10 944.5,-30 964.5,-30 964.5,-10 944.5,-10"/>
<text text-anchor="start" x="968.2258" y="-15.4" font-family="sans-serif" font-size="14.00" fill="#000000"> &#160;Exports</text>
<g id="clust1" class="cluster">
<title>cluster_AccountsModule</title>
<polygon fill="none" stroke="#000000" stroke-dasharray="1,5" points="8,-70 8,-206 356,-206 356,-70 8,-70"/>
</g>
<g id="clust2" class="cluster">
<title>cluster_AccountsModule_declarations</title>
<polygon fill="none" stroke="#000000" points="198,-78 198,-130 348,-130 348,-78 198,-78"/>
</g>
<g id="clust4" class="cluster">
<title>cluster_AccountsModule_imports</title>
<polygon fill="none" stroke="#000000" points="16,-78 16,-130 190,-130 190,-78 16,-78"/>
</g>
<g id="clust14" class="cluster">
<title>cluster_AppModule</title>
<polygon fill="none" stroke="#000000" stroke-dasharray="1,5" points="819,-146 819,-344 1367,-344 1367,-146 819,-146"/>
</g>
<g id="clust15" class="cluster">
<title>cluster_AppModule_declarations</title>
<polygon fill="none" stroke="#000000" points="1209,-154 1209,-206 1359,-206 1359,-154 1209,-154"/>
</g>
<g id="clust17" class="cluster">
<title>cluster_AppModule_imports</title>
<polygon fill="none" stroke="#000000" points="827,-154 827,-206 1201,-206 1201,-154 827,-154"/>
</g>
<g id="clust19" class="cluster">
<title>cluster_AppModule_bootstrap</title>
<polygon fill="none" stroke="#000000" points="937,-284 937,-336 1061,-336 1061,-284 937,-284"/>
</g>
<g id="clust27" class="cluster">
<title>cluster_BlocksModule</title>
<polygon fill="none" stroke="#000000" stroke-dasharray="1,5" points="364,-70 364,-138 1243,-138 1243,-70 364,-70"/>
</g>
<g id="clust28" class="cluster">
<title>cluster_BlocksModule_declarations</title>
<polygon fill="none" stroke="#000000" points="540,-78 540,-130 1235,-130 1235,-78 540,-78"/>
</g>
<g id="clust34" class="cluster">
<title>cluster_BlocksModule_imports</title>
<polygon fill="none" stroke="#000000" points="372,-78 372,-130 532,-130 532,-78 372,-78"/>
</g>
<g id="clust44" class="cluster">
<title>cluster_NodesModule</title>
<polygon fill="none" stroke="#000000" stroke-dasharray="1,5" points="1251,-70 1251,-138 1565,-138 1565,-70 1251,-70"/>
</g>
<g id="clust45" class="cluster">
<title>cluster_NodesModule_declarations</title>
<polygon fill="none" stroke="#000000" points="1423,-78 1423,-130 1557,-130 1557,-78 1423,-78"/>
</g>
<g id="clust47" class="cluster">
<title>cluster_NodesModule_imports</title>
<polygon fill="none" stroke="#000000" points="1259,-78 1259,-130 1415,-130 1415,-78 1259,-78"/>
</g>
<!-- AccountsComponent -->
<g id="node1" class="node">
<title>AccountsComponent</title>
<polygon fill="#ffffb3" stroke="#000000" points="340.2036,-122 205.7964,-122 205.7964,-86 340.2036,-86 340.2036,-122"/>
<text text-anchor="middle" x="273" y="-99.8" font-family="Times,serif" font-size="14.00" fill="#000000">AccountsComponent</text>
</g>
<!-- AccountsModule -->
<g id="node2" class="node">
<title>AccountsModule</title>
<polygon fill="#8dd3c7" stroke="#000000" points="329.4216,-198 326.4216,-202 305.4216,-202 302.4216,-198 216.5784,-198 216.5784,-162 329.4216,-162 329.4216,-198"/>
<text text-anchor="middle" x="273" y="-175.8" font-family="Times,serif" font-size="14.00" fill="#000000">AccountsModule</text>
</g>
<!-- AccountsComponent&#45;&gt;AccountsModule -->
<g id="edge1" class="edge">
<title>AccountsComponent&#45;&gt;AccountsModule</title>
<path fill="none" stroke="#000000" d="M273,-122.0109C273,-122.0109 273,-151.855 273,-151.855"/>
<polygon fill="#000000" stroke="#000000" points="269.5001,-151.8549 273,-161.855 276.5001,-151.855 269.5001,-151.8549"/>
</g>
<!-- AppModule -->
<g id="node5" class="node">
<title>AppModule</title>
<polygon fill="#8dd3c7" stroke="#000000" points="1040.6571,-263 1037.6571,-267 1016.6571,-267 1013.6571,-263 957.3429,-263 957.3429,-227 1040.6571,-227 1040.6571,-263"/>
<text text-anchor="middle" x="999" y="-240.8" font-family="Times,serif" font-size="14.00" fill="#000000">AppModule</text>
</g>
<!-- AccountsModule&#45;&gt;AppModule -->
<g id="edge4" class="edge">
<title>AccountsModule&#45;&gt;AppModule</title>
<path fill="none" stroke="#000000" d="M273,-198.2843C273,-219.3211 273,-251 273,-251 273,-251 947.0947,-251 947.0947,-251"/>
<polygon fill="#000000" stroke="#000000" points="947.0947,-254.5001 957.0947,-251 947.0947,-247.5001 947.0947,-254.5001"/>
</g>
<!-- AccountsRoutingModule -->
<g id="node3" class="node">
<title>AccountsRoutingModule</title>
<polygon fill="#8dd3c7" stroke="#000000" points="181.5393,-122 178.5393,-126 157.5393,-126 154.5393,-122 24.4607,-122 24.4607,-86 181.5393,-86 181.5393,-122"/>
<text text-anchor="middle" x="103" y="-99.8" font-family="Times,serif" font-size="14.00" fill="#000000">AccountsRoutingModule</text>
</g>
<!-- AccountsRoutingModule&#45;&gt;AccountsModule -->
<g id="edge2" class="edge">
<title>AccountsRoutingModule&#45;&gt;AccountsModule</title>
<path fill="none" stroke="#000000" d="M103,-122.0109C103,-144.4852 103,-180 103,-180 103,-180 206.3925,-180 206.3925,-180"/>
<polygon fill="#000000" stroke="#000000" points="206.3925,-183.5001 216.3925,-180 206.3924,-176.5001 206.3925,-183.5001"/>
</g>
<!-- NotfoundComponent -->
<g id="node4" class="node">
<title>NotfoundComponent</title>
<polygon fill="#ffffb3" stroke="#000000" points="1351.4902,-198 1216.5098,-198 1216.5098,-162 1351.4902,-162 1351.4902,-198"/>
<text text-anchor="middle" x="1284" y="-175.8" font-family="Times,serif" font-size="14.00" fill="#000000">NotfoundComponent</text>
</g>
<!-- NotfoundComponent&#45;&gt;AppModule -->
<g id="edge3" class="edge">
<title>NotfoundComponent&#45;&gt;AppModule</title>
<path fill="none" stroke="#000000" d="M1284,-198.2843C1284,-219.3211 1284,-251 1284,-251 1284,-251 1050.7467,-251 1050.7467,-251"/>
<polygon fill="#000000" stroke="#000000" points="1050.7467,-247.5001 1040.7467,-251 1050.7466,-254.5001 1050.7467,-247.5001"/>
</g>
<!-- AppComponent  -->
<g id="node9" class="node">
<title>AppComponent </title>
<polygon fill="#80b1d3" stroke="#000000" points="1053.439,-328 944.561,-328 944.561,-292 1053.439,-292 1053.439,-328"/>
<text text-anchor="middle" x="999" y="-305.8" font-family="Times,serif" font-size="14.00" fill="#000000">AppComponent </text>
</g>
<!-- AppModule&#45;&gt;AppComponent  -->
<g id="edge8" class="edge">
<title>AppModule&#45;&gt;AppComponent </title>
<path fill="none" stroke="#000000" stroke-dasharray="1,5" d="M999,-263.1061C999,-263.1061 999,-281.991 999,-281.991"/>
<polygon fill="#000000" stroke="#000000" points="995.5001,-281.9909 999,-291.991 1002.5001,-281.991 995.5001,-281.9909"/>
</g>
<!-- AppRoutingModule -->
<g id="node6" class="node">
<title>AppRoutingModule</title>
<polygon fill="#8dd3c7" stroke="#000000" points="1193.2744,-198 1190.2744,-202 1169.2744,-202 1166.2744,-198 1064.7256,-198 1064.7256,-162 1193.2744,-162 1193.2744,-198"/>
<text text-anchor="middle" x="1129" y="-175.8" font-family="Times,serif" font-size="14.00" fill="#000000">AppRoutingModule</text>
</g>
<!-- AppRoutingModule&#45;&gt;AppModule -->
<g id="edge5" class="edge">
<title>AppRoutingModule&#45;&gt;AppModule</title>
<path fill="none" stroke="#000000" d="M1129,-198.0225C1129,-215.3734 1129,-239 1129,-239 1129,-239 1050.8484,-239 1050.8484,-239"/>
<polygon fill="#000000" stroke="#000000" points="1050.8484,-235.5001 1040.8484,-239 1050.8484,-242.5001 1050.8484,-235.5001"/>
</g>
<!-- BlocksModule -->
<g id="node7" class="node">
<title>BlocksModule</title>
<polygon fill="#8dd3c7" stroke="#000000" points="933.4372,-198 930.4372,-202 909.4372,-202 906.4372,-198 834.5628,-198 834.5628,-162 933.4372,-162 933.4372,-198"/>
<text text-anchor="middle" x="884" y="-175.8" font-family="Times,serif" font-size="14.00" fill="#000000">BlocksModule</text>
</g>
<!-- BlocksModule&#45;&gt;AppModule -->
<g id="edge6" class="edge">
<title>BlocksModule&#45;&gt;AppModule</title>
<path fill="none" stroke="#000000" d="M884,-198.0225C884,-215.3734 884,-239 884,-239 884,-239 947.157,-239 947.157,-239"/>
<polygon fill="#000000" stroke="#000000" points="947.1571,-242.5001 957.157,-239 947.157,-235.5001 947.1571,-242.5001"/>
</g>
<!-- NodesModule -->
<g id="node8" class="node">
<title>NodesModule</title>
<polygon fill="#8dd3c7" stroke="#000000" points="1046.8161,-198 1043.8161,-202 1022.8161,-202 1019.8161,-198 951.1839,-198 951.1839,-162 1046.8161,-162 1046.8161,-198"/>
<text text-anchor="middle" x="999" y="-175.8" font-family="Times,serif" font-size="14.00" fill="#000000">NodesModule</text>
</g>
<!-- NodesModule&#45;&gt;AppModule -->
<g id="edge7" class="edge">
<title>NodesModule&#45;&gt;AppModule</title>
<path fill="none" stroke="#000000" d="M999,-198.1061C999,-198.1061 999,-216.991 999,-216.991"/>
<polygon fill="#000000" stroke="#000000" points="995.5001,-216.9909 999,-226.991 1002.5001,-216.991 995.5001,-216.9909"/>
</g>
<!-- BlockTxesComponent -->
<g id="node10" class="node">
<title>BlockTxesComponent</title>
<polygon fill="#ffffb3" stroke="#000000" points="1226.986,-122 1085.014,-122 1085.014,-86 1226.986,-86 1226.986,-122"/>
<text text-anchor="middle" x="1156" y="-99.8" font-family="Times,serif" font-size="14.00" fill="#000000">BlockTxesComponent</text>
</g>
<!-- BlockTxesComponent&#45;&gt;BlocksModule -->
<g id="edge9" class="edge">
<title>BlockTxesComponent&#45;&gt;BlocksModule</title>
<path fill="none" stroke="#000000" d="M1139.1971,-122.207C1139.1971,-127.5549 1139.1971,-132 1139.1971,-132 1139.1971,-132 898.9776,-132 898.9776,-132 898.9776,-132 898.9776,-151.8533 898.9776,-151.8533"/>
<polygon fill="#000000" stroke="#000000" points="895.4777,-151.8532 898.9776,-161.8533 902.4777,-151.8533 895.4777,-151.8532"/>
</g>
<!-- BlocksComponent -->
<g id="node11" class="node">
<title>BlocksComponent</title>
<polygon fill="#ffffb3" stroke="#000000" points="1067.219,-122 946.781,-122 946.781,-86 1067.219,-86 1067.219,-122"/>
<text text-anchor="middle" x="1007" y="-99.8" font-family="Times,serif" font-size="14.00" fill="#000000">BlocksComponent</text>
</g>
<!-- BlocksComponent&#45;&gt;BlocksModule -->
<g id="edge10" class="edge">
<title>BlocksComponent&#45;&gt;BlocksModule</title>
<path fill="none" stroke="#000000" d="M946.6892,-104C941.9055,-104 938.8743,-104 938.8743,-104 938.8743,-104 938.8743,-180 938.8743,-180 938.8743,-180 938.3281,-180 938.3281,-180"/>
<polygon fill="#000000" stroke="#000000" points="943.4122,-176.5002 933.4121,-180 943.4121,-183.5002 943.4122,-176.5002"/>
</g>
<!-- MessagePipe -->
<g id="node12" class="node">
<title>MessagePipe</title>
<polygon fill="#ffffb3" stroke="#000000" points="928.8655,-122 839.1345,-122 839.1345,-86 928.8655,-86 928.8655,-122"/>
<text text-anchor="middle" x="884" y="-99.8" font-family="Times,serif" font-size="14.00" fill="#000000">MessagePipe</text>
</g>
<!-- MessagePipe&#45;&gt;BlocksModule -->
<g id="edge11" class="edge">
<title>MessagePipe&#45;&gt;BlocksModule</title>
<path fill="none" stroke="#000000" d="M869.0224,-122.0109C869.0224,-122.0109 869.0224,-151.855 869.0224,-151.855"/>
<polygon fill="#000000" stroke="#000000" points="865.5225,-151.8549 869.0224,-161.855 872.5225,-151.855 865.5225,-151.8549"/>
</g>
<!-- MsNemesisPipe -->
<g id="node13" class="node">
<title>MsNemesisPipe</title>
<polygon fill="#ffffb3" stroke="#000000" points="821.4832,-122 714.5168,-122 714.5168,-86 821.4832,-86 821.4832,-122"/>
<text text-anchor="middle" x="768" y="-99.8" font-family="Times,serif" font-size="14.00" fill="#000000">MsNemesisPipe</text>
</g>
<!-- MsNemesisPipe&#45;&gt;BlocksModule -->
<g id="edge12" class="edge">
<title>MsNemesisPipe&#45;&gt;BlocksModule</title>
<path fill="none" stroke="#000000" d="M768,-122.308C768,-142.1455 768,-171 768,-171 768,-171 824.4691,-171 824.4691,-171"/>
<polygon fill="#000000" stroke="#000000" points="824.4691,-174.5001 834.4691,-171 824.4691,-167.5001 824.4691,-174.5001"/>
</g>
<!-- TxesDetailsComponent -->
<g id="node14" class="node">
<title>TxesDetailsComponent</title>
<polygon fill="#ffffb3" stroke="#000000" points="696.1965,-122 547.8035,-122 547.8035,-86 696.1965,-86 696.1965,-122"/>
<text text-anchor="middle" x="622" y="-99.8" font-family="Times,serif" font-size="14.00" fill="#000000">TxesDetailsComponent</text>
</g>
<!-- TxesDetailsComponent&#45;&gt;BlocksModule -->
<g id="edge13" class="edge">
<title>TxesDetailsComponent&#45;&gt;BlocksModule</title>
<path fill="none" stroke="#000000" d="M622,-122.0109C622,-144.4852 622,-180 622,-180 622,-180 824.7198,-180 824.7198,-180"/>
<polygon fill="#000000" stroke="#000000" points="824.7198,-183.5001 834.7198,-180 824.7198,-176.5001 824.7198,-183.5001"/>
</g>
<!-- BlocksRoutingModule -->
<g id="node15" class="node">
<title>BlocksRoutingModule</title>
<polygon fill="#8dd3c7" stroke="#000000" points="523.5547,-122 520.5547,-126 499.5547,-126 496.5547,-122 380.4453,-122 380.4453,-86 523.5547,-86 523.5547,-122"/>
<text text-anchor="middle" x="452" y="-99.8" font-family="Times,serif" font-size="14.00" fill="#000000">BlocksRoutingModule</text>
</g>
<!-- BlocksRoutingModule&#45;&gt;BlocksModule -->
<g id="edge14" class="edge">
<title>BlocksRoutingModule&#45;&gt;BlocksModule</title>
<path fill="none" stroke="#000000" d="M452,-122.0263C452,-146.9773 452,-189 452,-189 452,-189 824.4441,-189 824.4441,-189"/>
<polygon fill="#000000" stroke="#000000" points="824.4441,-192.5001 834.4441,-189 824.4441,-185.5001 824.4441,-192.5001"/>
</g>
<!-- NodesComponent -->
<g id="node16" class="node">
<title>NodesComponent</title>
<polygon fill="#ffffb3" stroke="#000000" points="1548.5982,-122 1431.4018,-122 1431.4018,-86 1548.5982,-86 1548.5982,-122"/>
<text text-anchor="middle" x="1490" y="-99.8" font-family="Times,serif" font-size="14.00" fill="#000000">NodesComponent</text>
</g>
<!-- NodesComponent&#45;&gt;NodesModule -->
<g id="edge15" class="edge">
<title>NodesComponent&#45;&gt;NodesModule</title>
<path fill="none" stroke="#000000" d="M1490,-122.1467C1490,-135.7395 1490,-152 1490,-152 1490,-152 1014.8859,-152 1014.8859,-152 1014.8859,-152 1014.8859,-152.9793 1014.8859,-152.9793"/>
<polygon fill="#000000" stroke="#000000" points="1011.386,-151.793 1014.8859,-161.793 1018.386,-151.7931 1011.386,-151.793"/>
</g>
<!-- NodesRoutingModule -->
<g id="node17" class="node">
<title>NodesRoutingModule</title>
<polygon fill="#8dd3c7" stroke="#000000" points="1407.4341,-122 1404.4341,-126 1383.4341,-126 1380.4341,-122 1266.5659,-122 1266.5659,-86 1407.4341,-86 1407.4341,-122"/>
<text text-anchor="middle" x="1337" y="-99.8" font-family="Times,serif" font-size="14.00" fill="#000000">NodesRoutingModule</text>
</g>
<!-- NodesRoutingModule&#45;&gt;NodesModule -->
<g id="edge16" class="edge">
<title>NodesRoutingModule&#45;&gt;NodesModule</title>
<path fill="none" stroke="#000000" d="M1309.1392,-122.1097C1309.1392,-131.897 1309.1392,-142 1309.1392,-142 1309.1392,-142 983.1141,-142 983.1141,-142 983.1141,-142 983.1141,-151.8903 983.1141,-151.8903"/>
<polygon fill="#000000" stroke="#000000" points="979.6142,-151.8903 983.1141,-161.8903 986.6142,-151.8904 979.6142,-151.8903"/>
</g>
</g>
</svg>
